<svg id="visual" viewBox="0 0 1920 1080" width="1920" height="1080" xmlns="http://www.w3.org/2000/svg" xmlns:xlink="http://www.w3.org/1999/xlink" version="1.1"><path d="M0 357L175 174L349 314L524 217L698 509L873 239L1047 401L1222 239L1396 325L1571 249L1745 303L1920 206L1920 0L1745 0L1571 0L1396 0L1222 0L1047 0L873 0L698 0L524 0L349 0L175 0L0 0Z" fill="#00cc8e"></path><path d="M0 509L175 239L349 498L524 347L698 649L873 379L1047 519L1222 336L1396 411L1571 401L1745 422L1920 379L1920 204L1745 301L1571 247L1396 323L1222 237L1047 399L873 237L698 507L524 215L349 312L175 172L0 355Z" fill="#00b98a"></path><path d="M0 725L175 552L349 779L524 476L698 757L873 584L1047 789L1222 573L1396 703L1571 519L1745 519L1920 541L1920 377L1745 420L1571 399L1396 409L1222 334L1047 517L873 377L698 647L524 345L349 496L175 237L0 507Z" fill="#00a784"></path><path d="M0 876L175 973L349 962L524 941L698 962L873 995L1047 930L1222 865L1396 941L1571 919L1745 962L1920 941L1920 539L1745 517L1571 517L1396 701L1222 571L1047 787L873 582L698 755L524 474L349 777L175 550L0 723Z" fill="#00957c"></path><path d="M0 1081L175 1081L349 1081L524 1081L698 1081L873 1081L1047 1081L1222 1081L1396 1081L1571 1081L1745 1081L1920 1081L1920 939L1745 960L1571 917L1396 939L1222 863L1047 928L873 993L698 960L524 939L349 960L175 971L0 874Z" fill="#038373"></path></svg>